<svg width="32" height="32" viewBox="0 0 270 273" fill="none" xmlns="http://www.w3.org/2000/svg">
<path d="M134.345 15.7441C134.514 15.6733 134.746 15.6475 134.998 15.708C135.25 15.7685 135.445 15.8971 135.563 16.0371C135.662 16.153 135.765 16.3373 135.765 16.6797V193.092C135.765 193.455 135.568 193.789 135.251 193.966L9.99902 263.689C9.72855 263.84 9.5244 263.85 9.37012 263.825C9.19126 263.796 8.99119 263.703 8.81836 263.536C8.64559 263.37 8.54443 263.174 8.50879 262.996C8.47805 262.843 8.48061 262.638 8.62109 262.362L133.874 16.2266C134.029 15.9212 134.204 15.8029 134.345 15.7441Z" stroke="currentColor" stroke-width="6"/>
<path d="M138.8 14.866C136.893 11.1178 131.235 12.4746 131.235 16.6802V193.092C131.235 194.543 132.021 195.881 133.29 196.587L258.542 266.311C261.993 268.232 265.844 264.521 264.053 261.002L138.8 14.866Z" fill="currentColor"/>
</svg>
