<svg width="270" height="270" viewBox="0 0 270 270" fill="none" xmlns="http://www.w3.org/2000/svg">
<path d="M134.345 14.3995C134.514 14.3287 134.746 14.3029 134.998 14.3634C135.25 14.4239 135.445 14.5525 135.563 14.6925C135.662 14.8084 135.765 14.9927 135.765 15.3351V191.747C135.765 192.11 135.568 192.445 135.251 192.621L9.99902 262.345C9.72855 262.495 9.5244 262.506 9.37012 262.481C9.19126 262.452 8.99119 262.358 8.81836 262.192C8.64559 262.025 8.54443 261.829 8.50879 261.651C8.47805 261.498 8.48061 261.294 8.62109 261.018L133.874 14.882C134.029 14.5766 134.204 14.4582 134.345 14.3995Z" stroke="white" stroke-width="6"/>
<path d="M138.8 13.5214C136.893 9.77324 131.235 11.13 131.235 15.3356V191.747C131.235 193.199 132.021 194.536 133.29 195.242L258.542 264.966C261.993 266.887 265.844 263.177 264.053 259.657L138.8 13.5214Z" fill="white"/>
</svg>
